<svg xmlns="http://www.w3.org/2000/svg" viewBox="0 0 26.649 26.649"><defs><style>.a{fill:#00404d;stroke:#1df7ff;}.b{fill:none;}.c{fill:#1df7ff;}.d{stroke:none;}</style></defs><g class="a" transform="translate(0 0)"><rect class="d" width="26.649" height="26.649" rx="5"/><rect class="b" x="0.5" y="0.5" width="25.649" height="25.649" rx="4.5"/></g><rect class="b" width="26.646" height="26.646" rx="5" transform="translate(0 0)"/><g transform="translate(6.343 5.639)"><g transform="translate(0 0)"><path class="c" d="M222.892,124.78a1.832,1.832,0,0,0-.307.138l-.045-.034Q222.715,124.828,222.892,124.78Z" transform="translate(-217.077 -124.523)"/><path class="c" d="M88.176,205.78a1.881,1.881,0,0,1-.286.312Q88.029,205.932,88.176,205.78Z" transform="translate(-85.971 -203.39)"/><path class="c" d="M236.314,121.83c-.106.024-.211.049-.314.077A1.832,1.832,0,0,1,236.314,121.83Z" transform="translate(-230.183 -121.65)"/><path class="c" d="M110.6,170.44a1.8,1.8,0,0,1-.036.237A1.8,1.8,0,0,1,110.6,170.44Z" transform="translate(-108.045 -168.981)"/><path class="c" d="M88.176,205.78a1.881,1.881,0,0,1-.286.312Q88.029,205.932,88.176,205.78Z" transform="translate(-85.971 -203.39)"/><path class="c" d="M110.6,170.44a1.8,1.8,0,0,1-.036.237A1.8,1.8,0,0,1,110.6,170.44Z" transform="translate(-108.045 -168.981)"/><path class="c" d="M26.968,119.4a1.824,1.824,0,0,0,.014-.229,1.855,1.855,0,0,0-1.729-1.85,1.857,1.857,0,0,0-2.26-1.285,1.854,1.854,0,0,0-1.577-.878,1.883,1.883,0,0,0-.282.021h0c-.106.024-.211.049-.314.077h0a1.833,1.833,0,0,0-.307.138l-.045-.034a1.855,1.855,0,0,0-2.912,1.1,1.8,1.8,0,0,1-.036.237q-.007.079-.007.159a1.847,1.847,0,0,0,.013.224q-.163.151-.317.311a1.881,1.881,0,0,1-.286.312,7.86,7.86,0,0,0,7.446,12.858,4.858,4.858,0,0,1-.114-9.392,1.855,1.855,0,1,0,2.718-1.768ZM21.08,129.6c-9.081-5.87-2.527-11-2.527-11-4.527,5.923,2.527,11,2.527,11-7.633-6.87-.474-11.134-.474-11.134-5.37,5.554.474,11.134.474,11.134s-5.686-6.291,1-9.9A7.352,7.352,0,0,0,21.08,129.6Z" transform="translate(-15 -114.999)"/></g></g></svg>