<svg xmlns="http://www.w3.org/2000/svg" viewBox="0 0 26.649 26.649"><defs><style>.a{fill:#3b3b3b;stroke:#fff;}.b{fill:none;}.c{fill:#fff;}.d{stroke:none;}</style></defs><g class="a" transform="translate(0 0)"><rect class="d" width="26.649" height="26.649" rx="5"/><rect class="b" x="0.5" y="0.5" width="25.649" height="25.649" rx="4.5"/></g><rect class="b" width="26.646" height="26.646" rx="5" transform="translate(0 0)"/><g transform="translate(13.391 13.369)"><path class="c" d="M21.144,10.577l-4.01-.664a6.654,6.654,0,0,0-5.92-6.033L10.572,0l-.64,3.865A6.654,6.654,0,0,0,3.865,9.937L0,10.577l3.88.642a6.654,6.654,0,0,0,6.031,5.915l.661,3.965.663-3.98a6.655,6.655,0,0,0,5.884-5.877ZM16.879,9.87l-3.287-.544,1.544-3.248A6.39,6.39,0,0,1,16.879,9.87ZM15.072,6.013,11.823,7.557l-.566-3.421A6.4,6.4,0,0,1,15.072,6.013ZM9.89,4.121,9.322,7.557,5.975,5.967A6.393,6.393,0,0,1,9.89,4.121ZM5.962,5.98,7.553,9.326,4.12,9.894A6.392,6.392,0,0,1,5.962,5.98ZM4.137,11.262l3.416.566L6.011,15.07A6.4,6.4,0,0,1,4.137,11.262ZM6.08,15.137,9.322,13.6l.547,3.283A6.39,6.39,0,0,1,6.08,15.137Zm5.2,1.726.544-3.267,3.146,1.5A6.393,6.393,0,0,1,11.278,16.863Zm3.809-1.889-1.5-3.146,3.27-.542a6.394,6.394,0,0,1-1.775,3.687Z" transform="translate(-10.572 -10.55)"/></g></svg>