<svg xmlns="http://www.w3.org/2000/svg" viewBox="0 0 26.649 26.649"><defs><style>.a{fill:#370300;stroke:#ff7272;}.b{fill:none;}.c{fill:#ff7373;}.d{stroke:none;}</style></defs><g class="a" transform="translate(0 0)"><rect class="d" width="26.649" height="26.649" rx="5"/><rect class="b" x="0.5" y="0.5" width="25.649" height="25.649" rx="4.5"/></g><rect class="b" width="26.646" height="26.646" rx="5" transform="translate(0 0)"/><g transform="translate(7.753 3.524)"><g transform="translate(0 0)"><path class="c" d="M410.123,7.531a3.328,3.328,0,0,1-.983-3.411A5.136,5.136,0,0,0,408.1,0c.577,1.2.826,1.239.114,3.939A3.043,3.043,0,0,0,410.123,7.531Z" transform="translate(-403.487)"/><path class="c" d="M817.4,282.409a2.586,2.586,0,0,0,1.175,1.762s-.689-.5-.339-1.762a3.327,3.327,0,0,0-.158-2.757C818.441,280.691,817.145,281.423,817.4,282.409Z" transform="translate(-808.134 -276.493)"/><path class="c" d="M10.8,206.971a2.279,2.279,0,0,1-1.3,2.014c1-1.794-.4-4.335-1.617-4.989a2.316,2.316,0,0,1-1.29-2.861c-1.3,1.227.248,1.753,1.175,4.394A2.688,2.688,0,0,1,6.4,209.034c1.011-1.093.879-2.736-.455-3.193-.862-.3-3.344-1.83-2.474-3.073a5.35,5.35,0,0,0,.689-3.118c0,1.378-2.259,1.988-2.384,3.254s1.751,1.762,2.067,2.892-.915,1.97-1.864,2.3A2.41,2.41,0,0,0,0,210.631c-.124,2.067,2.621,2.282,3.389,2.892s.587,1.13.587,1.13a1.014,1.014,0,0,1,.906-.333,6.555,6.555,0,0,0,5.149-.887C12.567,211.67,10.8,206.971,10.8,206.971Zm-5.694,7s.158-.712-.847-.2a2.665,2.665,0,0,0-.644-2.169c-.87-.847-1.469-2.146-.576-2.44s2.1-.271,2.2-1.356c0,0,.429,1.932-.441,2.711s.169,1.593.169,1.593a.823.823,0,0,1,.237.576v.181s1.058.112.983-.859c-.169-2.2.655-3.254,2.44-3.423,0,0-1.876.421-2.135,3.491-.068.8.384.565-.169,1.322a5.3,5.3,0,0,0,2.813-2.1s.271,3.208-4.033,2.677Z" transform="translate(0 -197.395)"/></g></g></svg>