<svg xmlns="http://www.w3.org/2000/svg" viewBox="0 0 26.649 26.649"><defs><style>.a,.b{stroke:#cf6cff;}.b{fill:#3a0056;}.c{fill:#cf6cff;}.d{stroke:none;}.e{fill:none;}</style></defs><g class="a" transform="translate(0 0)"><rect class="d" width="26.649" height="26.649" rx="5"/><rect class="e" x="0.5" y="0.5" width="25.649" height="25.649" rx="4.5"/></g><g class="b" transform="translate(0 0)"><rect class="d" width="26.646" height="26.646" rx="5"/><rect class="e" x="0.5" y="0.5" width="25.646" height="25.646" rx="4.5"/></g><g transform="translate(6.343 6.343)"><path class="c" d="M10.708.716l-.96,1.26-1.682.08L7.264,3.5l.481-1.869,1.228-.187L9.205.222A8.988,8.988,0,0,0,7.211,0C3.228,0,0,2.559,0,5.715A5.345,5.345,0,0,0,2.631,10.13l.961,2.876,1.295.294.707-2.068.414,3.137,1.255.294.1-3.461.966,3.408,1.2-.694L9.759,11.2l.549,1.966,1.821-1.843.145-1.54a5.194,5.194,0,0,0,2.147-4.068A5.671,5.671,0,0,0,10.708.716ZM3.32,6.693S.965,6.733,2.2,3.7A4.462,4.462,0,0,1,5.2,4.737C6.314,5.855,6.354,6.613,6.913,6.573a2.611,2.611,0,0,1-1.437,0,5.449,5.449,0,0,0-2.156.12Zm4.113,2.54A5.642,5.642,0,0,0,5.576,10.5s1-2.084,1.857-2.492c0,0,1.4,1.133,1.54,1.812a12.625,12.625,0,0,0-1.54-.589ZM11.1,6.693a5.448,5.448,0,0,0-2.156-.12,2.611,2.611,0,0,1-1.437,0c.559.04.6-.719,1.716-1.836A4.462,4.462,0,0,1,12.219,3.7C13.457,6.733,11.1,6.693,11.1,6.693Z" transform="translate(0 0)"/></g></svg>