<svg xmlns="http://www.w3.org/2000/svg" viewBox="0 0 26.649 26.649"><defs><style>.a{fill:#054800;}.b,.d{fill:#58ff00;}.c,.d{stroke:none;}</style></defs><g transform="translate(0 0)"><g class="a" transform="translate(0)"><path class="c" d="M 23.1249942779541 26.14907455444336 L 3.52407431602478 26.14907455444336 C 1.856594443321228 26.14907455444336 0.5000044107437134 24.7924747467041 0.5000044107437134 23.1249942779541 L 0.5000044107437134 3.52407431602478 C 0.5000044107437134 1.856594443321228 1.856594443321228 0.5000044107437134 3.52407431602478 0.5000044107437134 L 23.1249942779541 0.5000044107437134 C 24.7924747467041 0.5000044107437134 26.14907455444336 1.856594443321228 26.14907455444336 3.52407431602478 L 26.14907455444336 23.1249942779541 C 26.14907455444336 24.7924747467041 24.7924747467041 26.14907455444336 23.1249942779541 26.14907455444336 Z"/><path class="d" d="M 3.524074554443359 0.9999942779541016 C 2.132293701171875 0.9999942779541016 0.9999942779541016 2.132293701171875 0.9999942779541016 3.524074554443359 L 0.9999942779541016 23.1249942779541 C 0.9999942779541016 24.51677513122559 2.132293701171875 25.6490650177002 3.524074554443359 25.6490650177002 L 23.1249942779541 25.6490650177002 C 24.51677513122559 25.6490650177002 25.6490650177002 24.51677513122559 25.6490650177002 23.1249942779541 L 25.6490650177002 3.524074554443359 C 25.6490650177002 2.132293701171875 24.51677513122559 0.9999942779541016 23.1249942779541 0.9999942779541016 L 3.524074554443359 0.9999942779541016 M 3.524074554443359 -5.7220458984375e-06 L 23.1249942779541 -5.7220458984375e-06 C 25.07128524780273 -5.7220458984375e-06 26.6490650177002 1.577783584594727 26.6490650177002 3.524074554443359 L 26.6490650177002 23.1249942779541 C 26.6490650177002 25.07128524780273 25.07128524780273 26.6490650177002 23.1249942779541 26.6490650177002 L 3.524074554443359 26.6490650177002 C 1.577783584594727 26.6490650177002 -5.7220458984375e-06 25.07128524780273 -5.7220458984375e-06 23.1249942779541 L -5.7220458984375e-06 3.524074554443359 C -5.7220458984375e-06 1.577783584594727 1.577783584594727 -5.7220458984375e-06 3.524074554443359 -5.7220458984375e-06 Z"/></g></g><g transform="translate(6.343 6.343)"><g transform="translate(0 0)"><path class="b" d="M11.856,41.43s-.256.035-.611.046l-.183.1A22.934,22.934,0,0,0,9.108,42.8c.6.482,1.315,1.68,1.3,4.652,0,0-.358-2.964-2.29-3.928-.595.459-1.149.929-1.662,1.4a6.437,6.437,0,0,1-.28,4.536c.365-2.4-.095-3.437-.437-3.858a26.017,26.017,0,0,0-3.858,4.717A39.858,39.858,0,0,1,4.3,46.069q.414-.638.831-1.208c-.789-1.033-2.881-.281-2.9-.274a2.879,2.879,0,0,1,3.316-.282,24.779,24.779,0,0,1,1.629-1.912c-.261-1.514-2.345-1.476-2.345-1.476a2.809,2.809,0,0,1,3.037.774c.458-.445.887-.822,1.271-1.137q0-.037,0-.077s-2.262-3.53-5.7-.258a9.219,9.219,0,0,0-1.955,6.021A7.465,7.465,0,0,1,0,51.568s3.659.558,10.338-2.492S13.4,41.344,11.856,41.43Z" transform="translate(0 -38.552)"/><path class="b" d="M1406.389,2.155s0-1.2,1.89-.974a1.857,1.857,0,0,0-1.833-1.174,1.436,1.436,0,0,1-1.418,1.747S1404.842,2.585,1406.389,2.155Z" transform="translate(-1394.962 0)"/></g></g></svg>